<svg width="42" height="42" viewBox="0 0 42 42" fill="none" xmlns="http://www.w3.org/2000/svg">
<rect x="1" y="1" width="40" height="40" rx="5" fill="white" stroke="#EEEEEE" stroke-width="2"/>
<path d="M20 15C20 15.5523 20.4477 16 21 16C21.5523 16 22 15.5523 22 15C22 14.4477 21.5523 14 21 14C20.4477 14 20 14.4477 20 15Z" stroke="#343434" stroke-width="2"/>
<path d="M20 23C20 23.5523 20.4477 24 21 24C21.5523 24 22 23.5523 22 23C22 22.4477 21.5523 22 21 22C20.4477 22 20 22.4477 20 23Z" stroke="#343434" stroke-width="2"/>
<path d="M20 31C20 31.5523 20.4477 32 21 32C21.5523 32 22 31.5523 22 31C22 30.4477 21.5523 30 21 30C20.4477 30 20 30.4477 20 31Z" stroke="#343434" stroke-width="2"/>
</svg>
