<svg width="158" height="100" viewBox="0 0 158 100" fill="none" xmlns="http://www.w3.org/2000/svg">
<rect width="158" height="100" rx="16" fill="url(#paint0_linear_658_2369)"/>
<path fill-rule="evenodd" clip-rule="evenodd" d="M14.5458 19.0205L8 33.3328H15.8362L16.8077 31.0508H19.0282L19.9997 33.3328H28.6251V31.5911L29.3937 33.3328H33.8555L34.6241 31.5543V33.3328H52.5627L54.7439 31.1101L56.7863 33.3328L66 33.3512L59.4335 26.2166L66 19.0205H56.9292L54.8059 21.2021L52.8278 19.0205H33.3129L31.6372 22.7146L29.9221 19.0205H22.1023V20.7029L21.2324 19.0205H14.5458ZM41.3334 21.0522H51.6346L54.7852 24.4148L58.0375 21.0522H61.1881L56.401 26.2139L61.1881 31.3161H57.8946L54.7439 27.9145L51.4751 31.3161H41.3334V21.0522ZM43.8772 25.0542V23.1794V23.1776H50.3049L53.1095 26.1759L50.1806 29.1905H43.8772V27.1438H49.497V25.0542H43.8772ZM16.062 21.0522H19.8818L24.2236 30.7574V21.0522H28.4079L31.7615 28.0108L34.8521 21.0522H39.0156V31.3222H36.4822L36.4616 23.2747L32.7681 31.3222H30.5019L26.7878 23.2747V31.3222H21.5761L20.5881 29.0198H15.2501L14.2641 31.3202H11.4717L16.062 21.0522ZM16.1616 26.8918L17.9202 22.7903L19.6769 26.8918H16.1616Z" fill="white"/>
<defs>
<linearGradient id="paint0_linear_658_2369" x1="2.5" y1="100" x2="158" y2="2.70371e-06" gradientUnits="userSpaceOnUse">
<stop stop-color="#87C9FF"/>
<stop offset="1" stop-color="#0080EB"/>
</linearGradient>
</defs>
</svg>
