<svg width="158" height="100" viewBox="0 0 158 100" fill="none" xmlns="http://www.w3.org/2000/svg">
<rect width="158" height="100" rx="16" fill="url(#paint0_linear_658_2342)"/>
<path fill-rule="evenodd" clip-rule="evenodd" d="M22.5008 34.7703H17.4813L13.7173 20.4104C13.5386 19.7498 13.1593 19.1658 12.6013 18.8906C11.2087 18.1989 9.67423 17.6485 8.00024 17.3708V16.818H16.0863C17.2023 16.818 18.0393 17.6485 18.1788 18.613L20.1318 28.9713L25.1488 16.818H30.0289L22.5008 34.7703ZM32.8186 34.7703H28.0781L31.9817 16.818H36.7222L32.8186 34.7703ZM42.8554 21.7917C42.9949 20.8248 43.8319 20.2719 44.8084 20.2719C46.3429 20.1331 48.0144 20.4107 49.4094 21.1L50.2464 17.2348C48.8514 16.6819 47.3169 16.4043 45.9244 16.4043C41.3234 16.4043 37.9754 18.891 37.9754 22.3421C37.9754 24.9676 40.3469 26.3462 42.0209 27.1767C43.8319 28.0048 44.5294 28.5576 44.3899 29.3857C44.3899 30.6279 42.9949 31.1807 41.6024 31.1807C39.9284 31.1807 38.2544 30.7667 36.7223 30.075L35.8853 33.9426C37.5593 34.6319 39.3704 34.9095 41.0444 34.9095C46.2034 35.0459 49.4094 32.5617 49.4094 28.8329C49.4094 24.1371 42.8554 23.8619 42.8554 21.7917V21.7917ZM65.9997 34.7703L62.2357 16.818H58.1926C57.3556 16.818 56.5187 17.3708 56.2397 18.1989L49.2696 34.7703H54.1496L55.1237 32.1472H61.1197L61.6777 34.7703H65.9997ZM58.8904 21.6536L60.283 28.4196H56.3794L58.8904 21.6536Z" fill="white"/>
<defs>
<linearGradient id="paint0_linear_658_2342" x1="2.5" y1="100" x2="158" y2="2.70371e-06" gradientUnits="userSpaceOnUse">
<stop stop-color="#00579F"/>
<stop offset="1" stop-color="#3BA3F9"/>
</linearGradient>
</defs>
</svg>
