<svg width="158" height="100" viewBox="0 0 158 100" fill="none" xmlns="http://www.w3.org/2000/svg">
<rect width="158" height="100" rx="16" fill="url(#paint0_linear_658_2354)"/>
<path fill-rule="evenodd" clip-rule="evenodd" d="M36.9999 39.7343C33.9283 42.4223 29.9439 44.0449 25.5901 44.0449C15.8753 44.0449 8 35.9662 8 26.0005C8 16.0348 15.8753 7.95605 25.5901 7.95605C29.9439 7.95605 33.9283 9.57873 36.9999 12.2667C40.0715 9.57873 44.0559 7.95605 48.4098 7.95605C58.1245 7.95605 65.9998 16.0348 65.9998 26.0005C65.9998 35.9662 58.1245 44.0449 48.4098 44.0449C44.0559 44.0449 40.0715 42.4223 36.9999 39.7343Z" fill="#ED0006"/>
<path fill-rule="evenodd" clip-rule="evenodd" d="M37 39.7343C40.782 36.4246 43.1802 31.4998 43.1802 26.0005C43.1802 20.5011 40.782 15.5764 37 12.2667C40.0716 9.57873 44.056 7.95605 48.4099 7.95605C58.1246 7.95605 65.9999 16.0348 65.9999 26.0005C65.9999 35.9662 58.1246 44.0449 48.4099 44.0449C44.056 44.0449 40.0716 42.4223 37 39.7343Z" fill="#F9A000"/>
<path fill-rule="evenodd" clip-rule="evenodd" d="M37.0003 39.7332C40.7823 36.4235 43.1805 31.4988 43.1805 25.9994C43.1805 20.5001 40.7823 15.5753 37.0003 12.2656C33.2182 15.5753 30.8201 20.5001 30.8201 25.9994C30.8201 31.4988 33.2182 36.4235 37.0003 39.7332Z" fill="#FF5E00"/>
<defs>
<linearGradient id="paint0_linear_658_2354" x1="8.5" y1="92" x2="158" y2="2.5" gradientUnits="userSpaceOnUse">
<stop stop-color="#F89F1B"/>
<stop offset="1" stop-color="#EC011A"/>
</linearGradient>
</defs>
</svg>
