<svg width="70" height="48" viewBox="0 0 70 48" fill="none" xmlns="http://www.w3.org/2000/svg">
<rect x="0.5" y="0.5" width="69" height="47" rx="5.5" fill="white" stroke="#D9D9D9"/>
<path d="M51.4167 12H18.5833C17.7089 12 17 12.6871 17 13.5347V34.4271C17 35.2747 17.7089 35.9618 18.5833 35.9618H51.4167C52.2911 35.9618 53 35.2747 53 34.4271V13.5347C53 12.6871 52.2911 12 51.4167 12Z" fill="#4DBE86"/>
<path d="M35 18C33.8133 18 32.6533 18.3519 31.6666 19.0112C30.6799 19.6705 29.9109 20.6075 29.4567 21.7039C29.0026 22.8003 28.8838 24.0067 29.1153 25.1705C29.3468 26.3344 29.9182 27.4035 30.7574 28.2426C31.5965 29.0818 32.6656 29.6532 33.8295 29.8847C34.9933 30.1162 36.1997 29.9974 37.2961 29.5433C38.3925 29.0891 39.3295 28.3201 39.9888 27.3334C40.6481 26.3467 41 25.1867 41 24C41 22.4087 40.3679 20.8826 39.2426 19.7574C38.1174 18.6321 36.5913 18 35 18ZM35 26.5714C34.4914 26.5714 33.9943 26.4206 33.5714 26.1381C33.1485 25.8555 32.8189 25.4539 32.6243 24.984C32.4297 24.5142 32.3788 23.9971 32.478 23.4983C32.5772 22.9995 32.8221 22.5413 33.1817 22.1817C33.5413 21.8221 33.9995 21.5772 34.4983 21.478C34.9971 21.3788 35.5142 21.4297 35.984 21.6243C36.4539 21.8189 36.8555 22.1485 37.1381 22.5714C37.4206 22.9943 37.5714 23.4914 37.5714 24C37.5714 24.682 37.3005 25.336 36.8183 25.8183C36.336 26.3005 35.682 26.5714 35 26.5714Z" fill="#B7E4CE"/>
<rect x="20" y="31" width="8" height="2" rx="1" fill="#B7E4CE"/>
<rect x="42" y="31" width="8" height="2" rx="1" fill="#B7E4CE"/>
<rect x="42" y="15" width="8" height="2" rx="1" fill="#B7E4CE"/>
<rect x="20" y="15" width="8" height="2" rx="1" fill="#B7E4CE"/>
</svg>
