<svg width="70" height="48" viewBox="0 0 70 48" fill="none" xmlns="http://www.w3.org/2000/svg">
<g clip-path="url(#clip0_656_1975)">
<path d="M52.5 11.5484H17.5C16.3954 11.5484 15.5 12.4438 15.5 13.5484V34.7097C15.5 35.8143 16.3954 36.7097 17.5 36.7097H52.5C53.6046 36.7097 54.5 35.8143 54.5 34.7097V13.5484C54.5 12.4438 53.6046 11.5484 52.5 11.5484Z" fill="#E4E4E4"/>
<path d="M19.8089 21.6292H50.1358C50.6805 21.6292 51.1219 21.1878 51.1219 20.6432C51.1219 20.0985 50.6805 19.6571 50.1358 19.6571H19.8089C19.2644 19.6571 18.8229 20.0985 18.8229 20.6432C18.8229 21.1877 19.2644 21.6292 19.8089 21.6292Z" fill="#7B7B7B"/>
<path d="M19.8089 17.9121H27.2755C27.8202 17.9121 28.2616 17.4708 28.2616 16.9261C28.2616 16.3814 27.8202 15.94 27.2755 15.94L19.8089 15.94C19.2644 15.94 18.8229 16.3814 18.8229 16.9261C18.8229 17.4706 19.2644 17.9121 19.8089 17.9121Z" fill="#4BA9FF"/>
<path d="M19.8089 25.3458H50.013C50.5577 25.3458 50.9991 24.9045 50.9991 24.3598C50.9991 23.8151 50.5577 23.3737 50.013 23.3737H19.8089C19.2644 23.3737 18.8229 23.8151 18.8229 24.3598C18.8229 24.9045 19.2644 25.3458 19.8089 25.3458Z" fill="#7B7B7B"/>
<path d="M49.5167 30.8486H42.5876C41.7687 30.8486 41.1052 31.5121 41.1052 32.331C41.1052 33.1498 41.7687 33.8134 42.5876 33.8134H49.5167C50.3356 33.8134 50.9991 33.1498 50.9991 32.331C50.9991 31.5123 50.3354 30.8486 49.5167 30.8486Z" fill="#CECECE"/>
</g>
<defs>
<clipPath id="clip0_656_1975">
<rect width="39" height="26" fill="white" transform="translate(15.5 11)"/>
</clipPath>
</defs>
</svg>
