<svg width="26" height="26" viewBox="0 0 26 26" fill="none" xmlns="http://www.w3.org/2000/svg">
<path d="M0 4.3111C0 3.587 0.58203 3 1.3 3H24.7C25.418 3 26 3.587 26 4.3111V4.6889C26 5.413 25.418 6 24.7 6H1.3C0.58203 6 0 5.413 0 4.6889V4.3111Z" fill="#EA3358"/>
<path d="M0 13.2905C0 12.5778 0.58203 12 1.3 12H24.7C25.418 12 26 12.5778 26 13.2905V13.7095C26 14.4222 25.418 15 24.7 15H1.3C0.58203 15 0 14.4222 0 13.7095V13.2905Z" fill="#EA3358"/>
<path d="M0 21.3188C0 20.5904 0.58203 20 1.3 20H24.7C25.418 20 26 20.5904 26 21.3188V21.6812C26 22.4096 25.418 23 24.7 23H1.3C0.58203 23 0 22.4096 0 21.6812V21.3188Z" fill="#EA3358"/>
<path d="M18.6429 17C19.9447 17 21 18.1081 21 19.475L21 23.525C21 24.8919 19.9447 26 18.6429 26L18.3571 26C17.0553 26 16 24.8919 16 23.525L16 19.475C16 18.1081 17.0553 17 18.3571 17L18.6429 17Z" fill="#EA3358"/>
<path fill-rule="evenodd" clip-rule="evenodd" d="M20.4107 23.525L20.4107 19.475C20.4107 18.4498 19.6192 17.6187 18.6429 17.6187L18.3571 17.6187C17.3808 17.6187 16.5893 18.4498 16.5893 19.475L16.5893 23.525C16.5893 24.5502 17.3808 25.3813 18.3571 25.3813L18.6429 25.3813C19.6192 25.3813 20.4107 24.5502 20.4107 23.525ZM21 19.475C21 18.1081 19.9447 17 18.6429 17L18.3571 17C17.0553 17 16 18.1081 16 19.475L16 23.525C16 24.8919 17.0553 26 18.3571 26L18.6429 26C19.9447 26 21 24.8919 21 23.525L21 19.475Z" fill="#EA3358"/>
<path d="M7.64286 9C8.94467 9 10 10.1081 10 11.475L10 15.525C10 16.8919 8.94467 18 7.64286 18L7.35714 18C6.05533 18 5 16.8919 5 15.525L5 11.475C5 10.1081 6.05533 9 7.35714 9L7.64286 9Z" fill="#EA3358"/>
<path fill-rule="evenodd" clip-rule="evenodd" d="M9.41071 15.525L9.41071 11.475C9.41071 10.4498 8.61922 9.61875 7.64286 9.61875L7.35714 9.61875C6.38078 9.61875 5.58929 10.4498 5.58929 11.475L5.58929 15.525C5.58929 16.5502 6.38078 17.3813 7.35714 17.3813L7.64286 17.3813C8.61922 17.3813 9.41071 16.5502 9.41071 15.525ZM10 11.475C10 10.1081 8.94467 9 7.64286 9L7.35714 9C6.05533 9 5 10.1081 5 11.475L5 15.525C5 16.8919 6.05533 18 7.35714 18L7.64286 18C8.94467 18 10 16.8919 10 15.525L10 11.475Z" fill="#EA3358"/>
<path d="M18.6429 -1.03034e-07C19.9447 -4.61299e-08 21 1.1081 21 2.475L21 6.525C21 7.8919 19.9447 9 18.6429 9L18.3571 9C17.0553 9 16 7.8919 16 6.525L16 2.475C16 1.1081 17.0553 -1.72427e-07 18.3571 -1.15523e-07L18.6429 -1.03034e-07Z" fill="#EA3358"/>
<path fill-rule="evenodd" clip-rule="evenodd" d="M20.4107 6.525L20.4107 2.475C20.4107 1.44982 19.6192 0.61875 18.6429 0.61875L18.3571 0.61875C17.3808 0.61875 16.5893 1.44982 16.5893 2.475L16.5893 6.525C16.5893 7.55018 17.3808 8.38125 18.3571 8.38125L18.6429 8.38125C19.6192 8.38125 20.4107 7.55018 20.4107 6.525ZM21 2.475C21 1.1081 19.9447 -4.61299e-08 18.6429 -1.03034e-07L18.3571 -1.15523e-07C17.0553 -1.72427e-07 16 1.1081 16 2.475L16 6.525C16 7.8919 17.0553 9 18.3571 9L18.6429 9C19.9447 9 21 7.8919 21 6.525L21 2.475Z" fill="#EA3358"/>
</svg>
