<svg width="70" height="48" viewBox="0 0 70 48" fill="none" xmlns="http://www.w3.org/2000/svg">
<rect x="0.5" y="0.5" width="69" height="47" rx="5.5" fill="white" stroke="#D9D9D9"/>
<path d="M44.4258 8.73627C43.3166 8.73627 42.3116 9.18132 41.5789 9.90241L36.9182 14.5094L36.2156 17.7895L44.4259 16.8548C46.6678 16.8548 48.4851 15.0374 48.4851 12.7955C48.4851 10.5536 46.6677 8.73627 44.4258 8.73627Z" fill="#FF6161"/>
<path d="M26.6366 8.73627C27.7458 8.73627 28.7508 9.18132 29.4834 9.90241L34.1442 14.5094L34.8468 17.7895L26.6365 16.8548C24.3946 16.8548 22.5773 15.0374 22.5773 12.7955C22.5773 10.5536 24.3947 8.73627 26.6366 8.73627Z" fill="#FF6161"/>
<path d="M38.3355 13.1083H32.7268V17.7896H38.3355V13.1083Z" fill="#940030"/>
<path d="M49.5529 16.8549H35.5468L30.6058 25.5156L35.5468 37.0134H49.5529C51.0953 37.0134 52.3573 35.7515 52.3573 34.2091V19.6592C52.3573 18.1168 51.0953 16.8549 49.5529 16.8549Z" fill="#E1E1E1"/>
<path d="M21.5094 16.8549C19.967 16.8549 18.7051 18.1168 18.7051 19.6592V34.2091C18.7051 35.7515 19.967 37.0134 21.5094 37.0134H35.5468V16.8549H21.5094V16.8549Z" fill="#E1E1E1"/>
<path d="M49 22H22V24H49V22Z" fill="#020B28"/>
<path d="M36 26H22V28H36V26Z" fill="#020B28"/>
<path d="M39.2703 16.8549V33.7174L35.5312 31.6104L33.6616 23.6928L35.5312 16.8549H39.2703Z" fill="#FF6161"/>
<path d="M35.5311 16.8549V31.6104L31.792 33.7174V16.8549H35.5311Z" fill="#FF6161"/>
<path d="M47.3331 34.5021C48.5763 34.5021 49.5841 33.4943 49.5841 32.251C49.5841 31.0078 48.5763 30 47.3331 30C46.0899 30 45.082 31.0078 45.082 32.251C45.082 33.4943 46.0899 34.5021 47.3331 34.5021Z" fill="#EFEFEF"/>
</svg>
