<svg width="37" height="37" viewBox="0 0 37 37" fill="none" xmlns="http://www.w3.org/2000/svg">
<circle cx="18.5" cy="18.5" r="18.5" fill="#EA3358"/>
<path fill-rule="evenodd" clip-rule="evenodd" d="M13.7759 7.11074C14.9978 7.05449 15.3873 7.04199 18.4998 7.04199C21.6123 7.04199 22.0019 7.05553 23.2228 7.11074C24.4436 7.16595 25.2769 7.36074 26.0061 7.64303C26.7696 7.93158 27.4623 8.38262 28.0353 8.96595C28.6186 9.53783 29.0686 10.2295 29.3561 10.9941C29.6394 11.7232 29.8332 12.5566 29.8894 13.7753C29.9457 14.9993 29.9582 15.3889 29.9582 18.5003C29.9582 21.6128 29.9446 22.0024 29.8894 23.2243C29.8342 24.443 29.6394 25.2764 29.3561 26.0055C29.0686 26.7702 28.6178 27.463 28.0353 28.0357C27.4623 28.6191 26.7696 29.0691 26.0061 29.3566C25.2769 29.6399 24.4436 29.8337 23.2248 29.8899C22.0019 29.9462 21.6123 29.9587 18.4998 29.9587C15.3873 29.9587 14.9978 29.9451 13.7759 29.8899C12.5571 29.8347 11.7238 29.6399 10.9946 29.3566C10.23 29.069 9.53715 28.6183 8.96442 28.0357C8.38148 27.4635 7.93037 26.771 7.64255 26.0066C7.36025 25.2774 7.1665 24.4441 7.11025 23.2253C7.054 22.0014 7.0415 21.6118 7.0415 18.5003C7.0415 15.3878 7.05505 14.9982 7.11025 13.7774C7.16546 12.5566 7.36025 11.7232 7.64255 10.9941C7.9308 10.2296 8.38225 9.53711 8.96546 8.96491C9.53738 8.3821 10.2295 7.931 10.9936 7.64303C11.7228 7.36074 12.5561 7.16699 13.7748 7.11074H13.7759ZM23.13 9.17324C21.9217 9.11803 21.5592 9.10658 18.4998 9.10658C15.4405 9.10658 15.078 9.11803 13.8696 9.17324C12.7519 9.22428 12.1457 9.41074 11.7415 9.56803C11.2071 9.77637 10.8248 10.0232 10.4238 10.4243C10.0436 10.7941 9.75107 11.2444 9.56755 11.742C9.41025 12.1462 9.2238 12.7524 9.17275 13.8701C9.11755 15.0785 9.10609 15.441 9.10609 18.5003C9.10609 21.5597 9.11755 21.9222 9.17275 23.1305C9.2238 24.2482 9.41025 24.8545 9.56755 25.2587C9.75088 25.7555 10.0436 26.2066 10.4238 26.5764C10.7936 26.9566 11.2446 27.2493 11.7415 27.4326C12.1457 27.5899 12.7519 27.7764 13.8696 27.8274C15.078 27.8826 15.4394 27.8941 18.4998 27.8941C21.5603 27.8941 21.9217 27.8826 23.13 27.8274C24.2478 27.7764 24.854 27.5899 25.2582 27.4326C25.7925 27.2243 26.1748 26.9774 26.5759 26.5764C26.9561 26.2066 27.2488 25.7555 27.4321 25.2587C27.5894 24.8545 27.7759 24.2482 27.8269 23.1305C27.8821 21.9222 27.8936 21.5597 27.8936 18.5003C27.8936 15.441 27.8821 15.0785 27.8269 13.8701C27.7759 12.7524 27.5894 12.1462 27.4321 11.742C27.2238 11.2076 26.9769 10.8253 26.5759 10.4243C26.206 10.0442 25.7558 9.75159 25.2582 9.56803C24.854 9.41074 24.2478 9.22428 23.13 9.17324ZM17.0363 22.0326C17.8536 22.3729 18.7638 22.4188 19.6112 22.1625C20.4587 21.9063 21.1909 21.3638 21.6828 20.6277C22.1747 19.8915 22.3957 19.0075 22.3082 18.1265C22.2207 17.2455 21.8301 16.4222 21.203 15.7972C20.8032 15.3977 20.3198 15.0918 19.7877 14.9015C19.2555 14.7112 18.6878 14.6413 18.1254 14.6968C17.5629 14.7523 17.0198 14.9318 16.535 15.2223C16.0503 15.5129 15.636 15.9074 15.322 16.3773C15.008 16.8472 14.8021 17.3808 14.7191 17.9399C14.6361 18.4989 14.6781 19.0694 14.8421 19.6102C15.006 20.1511 15.2878 20.6489 15.6673 21.0677C16.0467 21.4866 16.5142 21.8161 17.0363 22.0326ZM14.3353 14.3357C14.8822 13.7888 15.5314 13.355 16.246 13.059C16.9605 12.7631 17.7264 12.6107 18.4998 12.6107C19.2733 12.6107 20.0391 12.7631 20.7537 13.059C21.4683 13.355 22.1175 13.7888 22.6644 14.3357C23.2113 14.8826 23.6451 15.5319 23.9411 16.2465C24.2371 16.961 24.3894 17.7269 24.3894 18.5003C24.3894 19.2738 24.2371 20.0396 23.9411 20.7542C23.6451 21.4687 23.2113 22.118 22.6644 22.6649C21.5599 23.7694 20.0619 24.3899 18.4998 24.3899C16.9378 24.3899 15.4398 23.7694 14.3353 22.6649C13.2307 21.5604 12.6102 20.0624 12.6102 18.5003C12.6102 16.9383 13.2307 15.4403 14.3353 14.3357ZM25.6957 13.4878C25.8312 13.36 25.9397 13.2062 26.0147 13.0357C26.0898 12.8652 26.1298 12.6813 26.1326 12.495C26.1353 12.3088 26.1006 12.1238 26.0305 11.9512C25.9605 11.7785 25.8565 11.6217 25.7248 11.49C25.5931 11.3582 25.4362 11.2542 25.2636 11.1842C25.0909 11.1142 24.906 11.0795 24.7197 11.0822C24.5334 11.0849 24.3496 11.125 24.179 11.2C24.0085 11.2751 23.8548 11.3836 23.7269 11.5191C23.4783 11.7826 23.3422 12.1327 23.3474 12.495C23.3527 12.8573 23.499 13.2033 23.7552 13.4595C24.0114 13.7158 24.3574 13.862 24.7197 13.8673C25.082 13.8726 25.4321 13.7365 25.6957 13.4878Z" fill="white"/>
</svg>
