<svg width="70" height="48" viewBox="0 0 70 48" fill="none" xmlns="http://www.w3.org/2000/svg">
<path d="M19.6683 29.1598C18.8409 29.1598 18.1253 28.984 17.5216 28.6325C16.9215 28.2773 16.4581 27.7837 16.1314 27.1516C15.8047 26.516 15.6413 25.7791 15.6413 24.9411C15.6413 24.0959 15.8047 23.3572 16.1314 22.7251C16.4581 22.0895 16.9215 21.5959 17.5216 21.2443C18.1253 20.8892 18.8409 20.7116 19.6683 20.7116C20.4957 20.7116 21.2095 20.8892 21.8096 21.2443C22.4133 21.5959 22.8785 22.0895 23.2052 22.7251C23.5319 23.3572 23.6953 24.0959 23.6953 24.9411C23.6953 25.7791 23.5319 26.516 23.2052 27.1516C22.8785 27.7837 22.4133 28.2773 21.8096 28.6325C21.2095 28.984 20.4957 29.1598 19.6683 29.1598ZM19.6789 27.402C20.0554 27.402 20.3696 27.2955 20.6218 27.0824C20.8739 26.8658 21.0639 26.571 21.1917 26.1982C21.3231 25.8253 21.3888 25.4009 21.3888 24.9251C21.3888 24.4492 21.3231 24.0249 21.1917 23.652C21.0639 23.2791 20.8739 22.9844 20.6218 22.7678C20.3696 22.5511 20.0554 22.4428 19.6789 22.4428C19.299 22.4428 18.9794 22.5511 18.7201 22.7678C18.4645 22.9844 18.2709 23.2791 18.1395 23.652C18.0117 24.0249 17.9478 24.4492 17.9478 24.9251C17.9478 25.4009 18.0117 25.8253 18.1395 26.1982C18.2709 26.571 18.4645 26.8658 18.7201 27.0824C18.9794 27.2955 19.299 27.402 19.6789 27.402ZM29.8227 20.8182V22.5227H24.8955V20.8182H29.8227ZM26.0141 18.858H28.2833V26.4858C28.2833 26.6953 28.3152 26.8587 28.3792 26.9759C28.4431 27.0895 28.5319 27.1694 28.6455 27.2156C28.7627 27.2617 28.8976 27.2848 29.0503 27.2848C29.1569 27.2848 29.2634 27.2759 29.3699 27.2582C29.4765 27.2369 29.5581 27.2209 29.615 27.2102L29.9718 28.8988C29.8582 28.9343 29.6984 28.9751 29.4924 29.0213C29.2865 29.071 29.0361 29.1012 28.7414 29.1119C28.1945 29.1332 27.7151 29.0604 27.3032 28.8935C26.8948 28.7266 26.577 28.4673 26.3497 28.1158C26.1224 27.7642 26.0105 27.3203 26.0141 26.7841V18.858ZM34.0458 24.2699V29H31.7766V18.0909H33.9819V22.2617H34.0778C34.2624 21.7788 34.5607 21.4006 34.9727 21.1271C35.3846 20.8501 35.9013 20.7116 36.5227 20.7116C37.0909 20.7116 37.5863 20.8359 38.0089 21.0845C38.435 21.3295 38.7653 21.6829 38.9996 22.1445C39.2376 22.6026 39.3548 23.1513 39.3512 23.7905V29H37.082V24.1953C37.0856 23.6911 36.9577 23.2987 36.6985 23.0181C36.4428 22.7376 36.0842 22.5973 35.6225 22.5973C35.3136 22.5973 35.0401 22.663 34.8022 22.7944C34.5678 22.9258 34.3832 23.1175 34.2482 23.3697C34.1168 23.6183 34.0494 23.9183 34.0458 24.2699ZM45.1657 29.1598C44.3241 29.1598 43.5996 28.9893 42.9924 28.6484C42.3887 28.304 41.9235 27.8175 41.5968 27.1889C41.2701 26.5568 41.1067 25.8093 41.1067 24.9464C41.1067 24.1048 41.2701 23.3661 41.5968 22.7305C41.9235 22.0948 42.3834 21.5994 42.9764 21.2443C43.573 20.8892 44.2726 20.7116 45.0751 20.7116C45.6149 20.7116 46.1174 20.7987 46.5826 20.9727C47.0513 21.1431 47.4597 21.4006 47.8077 21.745C48.1593 22.0895 48.4327 22.5227 48.628 23.0447C48.8233 23.5632 48.921 24.1705 48.921 24.8665V25.4897H42.0123V24.0835H46.785C46.785 23.7567 46.714 23.4673 46.5719 23.2152C46.4299 22.9631 46.2328 22.766 45.9807 22.6239C45.7321 22.4783 45.4427 22.4055 45.1124 22.4055C44.768 22.4055 44.4626 22.4854 44.1962 22.6452C43.9334 22.8015 43.7275 23.0128 43.5783 23.2791C43.4292 23.5419 43.3528 23.8349 43.3493 24.158V25.495C43.3493 25.8999 43.4238 26.2496 43.573 26.5444C43.7257 26.8391 43.9405 27.0664 44.2175 27.2262C44.4945 27.386 44.823 27.4659 45.203 27.4659C45.4551 27.4659 45.6859 27.4304 45.8954 27.3594C46.105 27.2884 46.2843 27.1818 46.4334 27.0398C46.5826 26.8977 46.6962 26.7237 46.7743 26.5178L48.8731 26.6562C48.7665 27.1605 48.5481 27.6009 48.2179 27.9773C47.8912 28.3501 47.4686 28.6413 46.9501 28.8509C46.4352 29.0568 45.8404 29.1598 45.1657 29.1598ZM50.7018 29V20.8182H52.9018V22.2457H52.987C53.1361 21.7379 53.3865 21.3544 53.738 21.0952C54.0896 20.8324 54.4944 20.701 54.9525 20.701C55.0662 20.701 55.1887 20.7081 55.3201 20.7223C55.4515 20.7365 55.5669 20.756 55.6663 20.7809V22.7944C55.5598 22.7624 55.4124 22.734 55.2242 22.7092C55.036 22.6843 54.8638 22.6719 54.7075 22.6719C54.3737 22.6719 54.0754 22.7447 53.8126 22.8903C53.5534 23.0323 53.3474 23.2312 53.1947 23.4869C53.0456 23.7425 52.971 24.0373 52.971 24.3711V29H50.7018Z" fill="url(#paint0_linear_656_1986)"/>
<defs>
<linearGradient id="paint0_linear_656_1986" x1="15" y1="24" x2="56" y2="24" gradientUnits="userSpaceOnUse">
<stop stop-color="#3C82DE"/>
<stop offset="0.5" stop-color="#2F80ED"/>
<stop offset="1" stop-color="#2D9EE0"/>
</linearGradient>
</defs>
</svg>
