<svg width="217" height="138" viewBox="0 0 217 138" fill="none" xmlns="http://www.w3.org/2000/svg">
<rect width="217" height="138" rx="16" fill="url(#paint0_linear_658_2439)"/>
<path d="M25.8477 42C24.2353 42 22.8408 41.6506 21.6643 40.9519C20.4948 40.2461 19.5917 39.265 18.955 38.0087C18.3183 36.7453 18 35.2807 18 33.615C18 31.9352 18.3183 30.4671 18.955 29.2108C19.5917 27.9474 20.4948 26.9663 21.6643 26.2676C22.8408 25.5618 24.2353 25.2089 25.8477 25.2089C27.4602 25.2089 28.8512 25.5618 30.0207 26.2676C31.1972 26.9663 32.1038 27.9474 32.7404 29.2108C33.3771 30.4671 33.6954 31.9352 33.6954 33.615C33.6954 35.2807 33.3771 36.7453 32.7404 38.0087C32.1038 39.265 31.1972 40.2461 30.0207 40.9519C28.8512 41.6506 27.4602 42 25.8477 42ZM25.8685 38.5063C26.602 38.5063 27.2145 38.2945 27.7058 37.871C28.1972 37.4405 28.5674 36.8547 28.8166 36.1136C29.0726 35.3725 29.2006 34.529 29.2006 33.5833C29.2006 32.6375 29.0726 31.794 28.8166 31.0529C28.5674 30.3118 28.1972 29.726 27.7058 29.2955C27.2145 28.8649 26.602 28.6497 25.8685 28.6497C25.128 28.6497 24.5052 28.8649 24 29.2955C23.5017 29.726 23.1245 30.3118 22.8685 31.0529C22.6194 31.794 22.4948 32.6375 22.4948 33.5833C22.4948 34.529 22.6194 35.3725 22.8685 36.1136C23.1245 36.8547 23.5017 37.4405 24 37.871C24.5052 38.2945 25.128 38.5063 25.8685 38.5063Z" fill="white"/>
<path d="M45.6364 25.4206V28.8085H36.0344V25.4206H45.6364ZM38.2143 21.5245H42.6364V36.6853C42.6364 37.1017 42.6987 37.4264 42.8233 37.6593C42.9479 37.8851 43.1209 38.044 43.3423 38.1357C43.5707 38.2275 43.8337 38.2733 44.1312 38.2733C44.3389 38.2733 44.5465 38.2557 44.7541 38.2204C44.9617 38.1781 45.1209 38.1463 45.2316 38.1251L45.9271 41.4812C45.7056 41.5518 45.3942 41.633 44.9928 41.7247C44.5915 41.8235 44.1036 41.8835 43.5292 41.9047C42.4634 41.9471 41.5292 41.8024 40.7264 41.4706C39.9306 41.1389 39.3112 40.6237 38.8683 39.9249C38.4254 39.2262 38.2074 38.3439 38.2143 37.2782V21.5245Z" fill="white"/>
<path d="M53.8664 32.281V41.6824H49.4442V20H53.7418V28.2897H53.9286C54.2885 27.3298 54.8698 26.5781 55.6726 26.0346C56.4753 25.4841 57.4823 25.2089 58.6933 25.2089C59.8006 25.2089 60.766 25.4559 61.5895 25.95C62.42 26.437 63.0636 27.1392 63.5203 28.0568C63.984 28.9673 64.2123 30.0577 64.2054 31.3282V41.6824H59.7833V32.1328C59.7902 31.1306 59.5411 30.3507 59.0359 29.7931C58.5376 29.2355 57.8387 28.9567 56.939 28.9567C56.3369 28.9567 55.8041 29.0873 55.3404 29.3484C54.8837 29.6096 54.5238 29.9907 54.2608 30.4918C54.0048 30.9859 53.8733 31.5823 53.8664 32.281Z" fill="white"/>
<path d="M75.5366 42C73.8964 42 72.4847 41.6612 71.3013 40.9836C70.1248 40.299 69.2182 39.332 68.5816 38.0828C67.9449 36.8264 67.6266 35.3407 67.6266 33.6256C67.6266 31.9528 67.9449 30.4848 68.5816 29.2214C69.2182 27.958 70.1144 26.9734 71.2701 26.2676C72.4328 25.5618 73.7961 25.2089 75.3601 25.2089C76.412 25.2089 77.3912 25.3818 78.2978 25.7276C79.2113 26.0664 80.0071 26.5781 80.6853 27.2628C81.3704 27.9474 81.9033 28.8085 82.2839 29.846C82.6646 30.8765 82.8549 32.0834 82.8549 33.4668V34.7055H69.3912V31.9105H78.6922C78.6922 31.2611 78.5538 30.6859 78.277 30.1848C78.0002 29.6837 77.6161 29.2919 77.1248 29.0096C76.6404 28.7202 76.0763 28.5756 75.4328 28.5756C74.7615 28.5756 74.1663 28.7344 73.6473 29.052C73.1352 29.3625 72.7338 29.7825 72.4431 30.3118C72.1525 30.8341 72.0037 31.4164 71.9968 32.0587V34.7161C71.9968 35.5207 72.1421 36.2159 72.4328 36.8017C72.7303 37.3876 73.149 37.8393 73.6888 38.1569C74.2286 38.4745 74.8687 38.6333 75.6092 38.6333C76.1006 38.6333 76.5504 38.5627 76.9587 38.4216C77.367 38.2804 77.7165 38.0687 78.0071 37.7863C78.2978 37.504 78.5192 37.1582 78.6715 36.7488L82.7614 37.0241C82.5538 38.0263 82.1282 38.9015 81.4846 39.6497C80.848 40.3908 80.0244 40.9695 79.014 41.3859C78.0106 41.7953 76.8514 42 75.5366 42Z" fill="white"/>
<path d="M86.3253 41.6824V25.4206H90.6125V28.2579H90.7786C91.0692 27.2486 91.5571 26.4864 92.2422 25.9711C92.9273 25.4488 93.7163 25.1877 94.609 25.1877C94.8305 25.1877 95.0692 25.2018 95.3253 25.23C95.5813 25.2583 95.8062 25.2971 96 25.3465V29.3484C95.7924 29.2849 95.5052 29.2284 95.1384 29.179C94.7716 29.1296 94.436 29.1049 94.1315 29.1049C93.481 29.1049 92.8997 29.2496 92.3876 29.539C91.8824 29.8213 91.481 30.2166 91.1834 30.7247C90.8928 31.2329 90.7474 31.8187 90.7474 32.4822V41.6824H86.3253Z" fill="white"/>
<defs>
<linearGradient id="paint0_linear_658_2439" x1="227" y1="-47.5" x2="-5.2027e-06" y2="159.5" gradientUnits="userSpaceOnUse">
<stop stop-color="#C4A8FF"/>
<stop offset="1" stop-color="#6B30E4"/>
</linearGradient>
</defs>
</svg>
