<svg width="126" height="80" viewBox="0 0 126 80" fill="none" xmlns="http://www.w3.org/2000/svg">
<path d="M86.9998 39.5C86.9998 53.031 76.0308 64 62.5 64C48.9691 64 38 53.0312 38 39.5C38 25.9691 48.9691 15 62.5 15C76.0309 15 86.9998 25.9691 86.9998 39.5Z" fill="white"/>
<path d="M62.2954 23.7104C63.1579 24.205 64.0728 24.8415 64.7692 25.516L64.4956 25.7896C63.1213 25.6442 61.6739 25.8256 60.3712 25.8456C60.2259 25.6998 59.9332 25.4805 60.2058 25.2973L62.2954 23.7104ZM86.5951 40.6944C86.6134 41.3116 86.6717 41.8416 86.4297 42.4732C83.9191 43.1836 82.2699 40.5389 79.8338 40.9378L80.1093 42.3086C82.363 42.3824 83.7707 44.5325 86.099 44.44C85.7682 45.0974 86.2466 46.8291 84.7811 46.1368C83.2599 45.7732 82.16 44.44 80.4931 44.44C80.2919 44.8075 80.4193 45.3161 80.384 45.7507C82.1426 46.0252 83.4073 47.5039 85.1654 47.777C85 48.3781 84.8361 49.0511 84.3409 49.4177C82.9107 49.0714 81.7935 47.7935 80.2709 47.8301L79.9997 49.0888C81.4468 49.1258 82.3817 50.3995 83.6822 50.7819C83.718 51.3128 83.2409 51.7873 82.9662 52.2612C81.8116 51.9162 80.9312 50.9295 79.6121 51.0023C79.5939 50.5078 79.8889 49.9464 79.7775 49.4177C78.296 49.8561 77.3026 48.4866 76.2046 47.665C76.1729 44.9766 73.3282 43.2129 73.178 40.6944C73.1492 40.1923 73.2261 39.6562 73.456 39.0802C74.391 36.9294 74.0973 34.1371 73.0721 32.1319C72.7606 31.6042 72.2086 31.1876 71.6942 30.8774C72.4468 32.4642 73.364 34.3392 72.9062 36.2897C72.8532 37.7959 71.9599 39.2424 71.9497 40.6944C71.9462 41.2121 72.0572 41.7298 72.3565 42.2526C73.5485 44.3883 75.6928 46.4099 74.8865 49.0883C74.6648 49.911 74.0046 50.5472 73.8398 51.3844C75.2342 52.5334 76.5526 53.828 78.4028 53.901C79.062 53.4821 78.6958 51.6245 80.0519 52.4813L82.032 53.4667C81.8877 53.9941 81.444 54.4667 81.0421 54.8298C80.2908 54.466 79.5579 54.0299 78.6212 54.0655C78.3449 54.3571 78.1073 54.6843 78.1283 55.1027C78.7875 55.2107 79.3922 55.4875 79.9429 55.871C79.6872 56.4188 79.189 56.7621 78.7309 57.1817L77.1949 56.6353C76.9384 57.0004 76.4057 57.3841 76.5926 57.7848C76.9392 57.9324 77.3237 58.132 77.5788 58.3878C76.9008 59.1169 76.0415 59.586 75.2146 60.0809C74.5023 57.7648 72.1556 56.1409 72.357 53.4624L72.248 53.3541C71.6963 53.9711 71.8807 54.9578 71.9162 55.7585C72.5764 57.4362 74.1512 58.732 74.39 60.5717C74.1143 61.0451 73.4926 61.1395 73.0157 61.34C73.0711 58.023 68.014 55.5073 71.257 52.1522C72.3386 50.5093 74.1507 48.9415 73.5086 46.6796C72.8494 44.4958 70.5178 43.1426 70.5384 40.6944L70.542 40.5035C71.073 37.9504 72.6863 35.2338 71.3666 32.5178C70.9987 31.4254 70.177 30.184 69.0592 29.7274C70.7256 31.6251 71.3863 34.7215 70.4329 37.2751C69.9524 38.2908 69.2909 39.5009 69.2245 40.6949H69.2206C69.1852 41.3185 69.3132 41.9386 69.7176 42.5266C70.9829 44.5692 73.1806 46.8129 71.9164 49.4747C70.4873 51.6068 67.9952 53.7756 69.387 56.5838C70.3947 58.261 71.9536 59.9345 71.5331 61.9963L69.8839 62.5427C70.9834 58.6971 65.5954 56.4375 67.8509 52.5906C69.2435 50.5306 71.7341 48.5978 70.3242 45.8638C69.4813 44.1698 67.7398 43.1672 67.7948 41.0502L67.8547 40.6947C68.4222 37.6923 70.7163 34.8503 69.1122 31.6419C68.6907 30.6945 67.8483 29.7286 66.9134 29.1812L66.8569 29.2374C68.7269 31.0422 69.2959 34.0117 68.2876 36.3988C67.8172 37.7993 66.7847 39.1944 66.5749 40.6952C66.475 41.4029 66.5592 42.1362 66.9702 42.9087C68.1611 44.785 70.2496 46.7753 68.9463 49.2011C67.5739 51.2047 65.2826 53.1542 66.1978 55.7597C67.2059 58.0393 69.3109 60.2108 68.1743 63.0374L66.4726 63.4198C67.828 60.6651 65.7956 57.9318 64.605 55.5427C63.1566 52.1152 67.7169 50.4739 67.79 47.3402C67.7727 45.3176 65.6114 44.1691 65.1546 42.3098C64.2192 41.5246 63.2496 42.622 62.1314 42.4183C61.3058 42.5833 60.0378 41.2877 59.5449 42.6921C58.958 44.7511 56.2843 46.2648 57.4594 48.707C58.5775 50.8772 61.2684 52.4642 60.3695 55.2728C59.5647 57.8962 56.9061 60.394 58.555 63.4198C57.8776 63.2015 56.6127 63.6194 56.631 62.5428C55.587 58.8787 60.0391 56.744 58.664 53.0817C58.0241 50.8386 55.1083 49.5993 55.7503 46.9013C56.2248 44.6805 58.7297 43.1279 58.3784 40.6951C58.3499 40.4914 58.2995 40.2829 58.2275 40.0656C57.2925 37.4404 55.3851 34.8146 56.522 31.7507C56.8341 30.8756 57.4576 30.1283 58.0054 29.3461C56.1912 30.312 55.276 32.3544 55.3136 34.4322C55.2345 36.6918 56.9122 38.6274 57.1509 40.6951C57.2448 41.5295 57.1074 42.384 56.522 43.2904C55.3319 44.8971 53.7754 46.5911 54.489 48.7066C55.1675 50.8405 57.8425 52.1332 57.6777 54.6135C57.6595 57.5475 54.2329 59.3742 55.204 62.6554L53.4985 62.1049C52.8214 59.1892 55.9359 57.6974 55.9716 54.9996C56.4124 51.8972 52.4353 50.7461 52.6739 47.7219C52.6568 45.4241 54.6898 43.9689 55.5877 42.0361C55.7417 41.5658 55.7929 41.1213 55.7723 40.6952C55.6623 38.5582 53.7268 36.8875 54.048 34.4848C54.1561 32.7166 54.7608 31.1666 55.9156 29.8367C54.3223 30.4736 53.6641 32.2984 53.2239 33.83C52.4601 36.2859 54.2834 38.495 54.4663 40.6954C54.5473 41.667 54.3086 42.6331 53.3897 43.6208C52.0696 45.1685 50.7309 47.1213 51.684 49.2014C52.6932 51.4965 55.8639 53.283 54.4887 56.1456C53.7384 57.9508 51.9418 59.3172 52.0156 61.4494C51.5395 61.2488 51.0457 61.0489 50.6411 60.6853C50.6411 57.9694 54.5242 56.2731 52.6741 53.411C52.5102 53.9757 52.475 54.7432 52.3466 55.3811C51.7046 57.0409 50.3308 58.3695 49.8167 60.0853C48.957 59.7552 48.0582 59.0617 47.3431 58.3326L48.3336 57.7295C48.2235 57.3642 47.9308 57.0547 47.6748 56.7448C47.0316 56.6548 46.6093 57.0747 46.079 57.2392C45.621 56.8374 45.1788 56.4726 44.8137 55.9804C45.1424 55.0488 47.7114 55.8192 46.41 54.2874C45.5313 53.7409 44.6494 54.5216 43.88 54.8861L42.837 53.5753C43.7349 53.029 44.6305 52.2615 45.7473 52.4816C46.0225 52.9747 46.0416 53.6999 46.5719 53.9573C48.4596 53.9208 49.7971 52.5003 51.2442 51.3879C50.2356 49.8948 49.4146 47.8335 50.3105 46.0279C51.0284 44.2185 52.8988 42.6946 52.9836 40.6942C53.0027 40.239 52.9314 39.76 52.7313 39.2444C51.7423 36.71 51.3932 33.2848 53.2809 31.0416C52.2546 31.3159 51.6494 32.5886 51.3007 33.555C50.1659 36.0297 51.6011 38.3224 51.6507 40.6941C51.6575 41.1207 51.6227 41.5482 51.5188 41.9789C50.5472 43.9294 48.9732 45.6408 48.7175 47.8853C47.5994 48.5949 46.6814 49.8358 45.0882 49.4171C45.0322 49.8359 45.1606 50.4744 45.3067 50.9488C44.0433 50.8961 43.1818 51.8225 42.118 52.26C41.5514 52.0791 41.4039 51.3504 41.1845 50.8404C42.4297 50.422 43.3279 49.1801 44.7575 49.1998C44.9232 48.7417 44.6646 48.322 44.5916 47.885C42.8133 47.0996 39.9944 51.7669 39.7574 47.7204C41.5344 47.6109 42.67 45.9699 44.4299 45.8063L44.4824 44.4956C42.4852 44.2948 41.2004 46.3376 39.2039 46.1362L38.7636 44.3871C41.073 44.5307 42.4489 42.4717 44.6483 42.3609C44.9405 41.9786 44.9757 41.4133 45.0321 40.8852C42.6314 40.574 40.9841 43.2208 38.4362 42.4169C38.4362 42.4169 38.3484 41.3153 38.3008 40.6942H38.3042C38.2869 40.4514 38.2705 40.2821 38.2705 40.2821C40.5425 41.1592 42.5387 39.5356 44.4824 38.6975C44.9767 38.5504 45.7476 38.8055 45.9693 38.2592C45.9501 37.8398 46.7188 37.3495 46.0789 37.0568C43.2373 36.6731 41.3496 40.083 38.4359 38.5325L38.2173 38.0941C38.8234 29.8551 43.4939 21.8896 51.2442 17.9697C54.3831 16.1851 58.2827 15.2754 62.2154 15.2431C66.9615 15.2039 71.7571 16.4425 75.3246 18.955C78.789 21.0692 82.1029 24.5534 83.9013 28.0904C85.6213 31.1894 86.4129 34.6668 86.6493 38.3688C83.6435 40.6284 81.627 36.24 78.5662 37.2221C78.731 37.6971 78.8223 38.1884 79.1722 38.5894C81.8849 38.5704 83.753 41.3963 86.5927 40.2826L86.5951 40.6944ZM52.0678 30.5473C50.1618 29.3072 47.7453 30.4749 45.969 31.1502C45.8041 29.4905 45.1266 27.9783 43.714 26.8846C43.5769 26.8168 43.3875 26.674 43.2169 26.6635C43.1147 26.6571 43.0175 26.6981 42.9421 26.8281C43.5824 30.7469 41.0218 33.4814 39.2072 36.4542C39.8114 36.9455 40.7821 36.8721 41.515 36.7277C43.4386 35.9624 45.2709 34.6304 47.5614 35.0869C48.2387 33.9385 49.3767 32.8261 50.3099 31.9146C50.88 31.4237 51.6632 31.112 52.0678 30.5473ZM57.8959 33.0085C57.8593 33.2444 57.9142 33.6651 58.2799 33.5026C58.8488 32.7187 59.8561 33.3388 60.4787 33.3941V33.1735C60.1371 32.6397 59.4342 32.3716 58.7205 32.3983C58.5558 32.4041 58.3884 32.428 58.2273 32.4652C57.9885 32.518 57.8223 32.7354 57.8959 33.0085ZM66.856 30.6599C66.3444 29.5293 65.1716 29.0717 64.1073 28.7984C63.5857 28.7345 63.0442 28.6912 62.5073 28.6861C62.4066 28.6851 62.3061 28.6838 62.206 28.6861C60.7039 28.7163 59.2687 29.0999 58.3919 30.33C58.266 30.6773 57.7127 31.165 58.2265 31.4762C59.381 31.4028 60.6985 31.2587 61.468 32.2444C61.468 33.1204 62.0365 34.2857 61.0841 34.7051C60.2949 33.9781 59.3603 35.0145 58.5016 34.4311C58.0979 34.1938 57.8424 34.4708 57.677 34.817C57.4383 37.0771 58.6278 39.5713 60.753 40.8288C61.6143 41.1379 62.7721 41.4319 63.671 40.9933C65.8331 39.9917 66.7287 37.6961 67.1313 35.581C67.0773 35.1785 67.0965 34.3942 66.5289 34.3752C65.888 34.7785 64.9532 34.5402 64.2739 34.3752C63.8723 34.5042 63.8538 35.0887 63.3967 35.1995L63.1182 34.9785C62.8797 33.9773 62.7326 32.5548 63.668 31.8621C64.7134 31.4427 65.941 31.2595 67.0221 31.5886C67.2239 31.2425 66.9124 30.97 66.856 30.6599ZM65.7529 32.4575C65.6803 32.4593 65.6096 32.4629 65.5381 32.4652C65.1541 32.72 64.0352 32.5368 64.4391 33.3941C65.1359 32.8457 66.107 33.23 66.8033 33.5026C67.0608 33.3754 67.0049 33.1201 67.0219 32.9C66.7984 32.4862 66.2642 32.4473 65.7529 32.4575ZM73.731 24.7496C72.3747 24.678 71.2389 25.4439 69.9926 25.7905C69.8841 24.7355 70.6897 23.6213 70.8736 22.5621C68.8585 22.6911 67.2626 23.8977 65.5956 24.8617C65.2098 23.9343 64.8229 23.0021 64.4398 22.0713L66.6386 19.9925L66.6949 19.7186L63.7249 19.5541C63.2132 18.6623 63.0116 17.588 62.4069 16.7677C61.9121 17.6973 61.5797 18.6813 61.0854 19.6102L58.1188 19.7752V19.9925L60.3703 22.0151C60.0951 23.0547 59.8393 24.1844 59.1619 24.9702C57.8427 24.184 56.5422 23.3284 55.0958 22.7825C54.7478 22.6708 54.2516 22.489 53.9401 22.7265C54.3976 23.7294 55.0382 24.8082 54.9304 25.903C54.3254 25.7922 53.8499 25.4062 53.2814 25.244C52.6016 25.0595 51.795 24.6989 51.1355 24.9182C52.2351 26.4487 53.1327 28.0504 53.4432 29.8923C57.0912 28.1406 61.3456 27.1771 65.7618 27.9257C67.8318 28.2535 69.7353 29.0924 71.5863 29.7835C71.6586 27.8521 72.8863 26.3002 73.731 24.7496ZM79.9956 35.2516C81.8632 35.7434 83.7367 37.7678 85.7144 36.4544C83.992 33.6109 81.4285 30.985 82.1414 27.2666C82.216 27.0128 82.0511 26.7558 81.8139 26.7197C80.6967 27.174 79.8314 28.2692 79.3893 29.3457C79.2074 29.9824 79.0997 30.6592 78.8436 31.2594C77.505 30.5663 76.0767 29.8949 74.446 30.0571C73.858 30.1301 73.0149 30.1684 72.9064 30.769C74.757 31.753 76.2789 33.395 77.413 35.1436C78.2026 35.0155 79.171 35.125 79.9956 35.2516ZM60.4258 37.8214L60.4786 38.151C61.1946 38.6256 61.4148 39.4299 62.4061 39.3568C63.2852 39.4088 63.9448 38.5894 64.3828 37.9335C63.1931 37.7701 61.7456 38.023 60.4258 37.8214ZM61.4158 36.3457C61.4516 36.4917 61.3251 36.7105 61.5249 36.7842C62.1113 36.6576 63.1735 37.0946 63.501 36.4019C63.2724 36.1471 62.8991 36.0314 62.5074 36.0314C62.1159 36.0314 61.7095 36.1449 61.4158 36.3457Z" fill="#007042"/>
<path opacity="0.99" d="M60.4272 35.7129H64.445V37.3551H60.4272V35.7129Z" fill="white"/>
<path d="M61.1694 36.5906C61.6886 36.7128 61.8171 36.896 62.2274 36.9472C62.6636 36.9395 62.6007 36.8513 63.3615 36.5901C63.4114 36.5725 63.4801 36.4629 63.3949 36.3788C62.9225 35.9123 62.596 36.2456 62.2999 36.2545C61.907 36.2587 61.5385 35.9198 61.1547 36.3603C61.0893 36.4498 61.0552 36.5376 61.1694 36.5906Z" fill="#007042"/>
<path d="M80.1511 63.536V61.1969H79.3114V60.7207H81.5601V61.1969H80.7224V63.536H80.1511Z" fill="#007042"/>
<path d="M81.9232 63.5362V60.7207H82.7782L83.2917 62.6412L83.7993 60.7207H84.6564V63.5362H84.1255V61.32L83.5638 63.5362H83.0136L82.4539 61.32V63.5362H81.9232Z" fill="#007042"/>
</svg>
