<svg width="126" height="80" viewBox="0 0 126 80" fill="none" xmlns="http://www.w3.org/2000/svg">
<path d="M27.6612 28.5509C28.1224 29.2138 28.0762 30.0655 28.3055 30.821L27.9367 31.1536C22.449 31.2936 17.5585 31.5792 12.0695 32.0039C12.3463 33.092 13.823 33.8967 13.4064 35.2696C10.7318 40.8989 8.5176 46.7651 6.16518 52.5861C5.79726 52.9165 5.28864 52.7252 4.96608 52.4413C4.27392 51.6371 2.56746 51.118 3.1206 49.7925C5.56626 43.8785 8.01108 38.0123 10.9637 32.3369C7.8729 32.4312 4.96608 32.8568 1.8291 33.0925L1.69176 32.9999L2.79888 30.4441C10.9175 29.2138 19.126 28.4565 27.6612 28.5509Z" fill="#DD0F2D"/>
<path d="M21.3864 34.985C21.5716 35.5997 21.5254 36.4522 21.2029 37.0196C20.7417 37.6825 20.0495 38.2024 19.265 38.2498C18.3893 38.3907 17.5585 37.9651 17.1902 37.1152C16.9126 36.4053 16.729 35.3641 17.144 34.6068C17.4195 33.9921 18.1121 33.6596 18.7118 33.4713C19.8181 33.4239 20.9252 33.8495 21.3864 34.985Z" fill="#DD0F2D"/>
<path d="M16.4514 39.101C17.0516 39.953 18.5266 40.6621 18.2511 41.845C16.9583 44.3999 15.6673 46.9061 14.7911 49.6018C16.2662 48.8471 17.6509 47.3808 18.9433 46.1014C20.9714 43.9734 22.8631 41.7985 24.6624 39.5757C25.5843 39.8109 26.4151 40.6621 26.969 41.3259C25.9547 43.4539 24.8018 45.5823 23.8783 47.759L31.1203 40.473C31.9502 40.9942 33.2426 41.7985 33.2884 42.8388C32.0893 44.5403 31.1674 46.387 30.4286 48.2333L37.6228 41.6554C38.5463 41.5607 39.283 42.7436 39.8832 43.5022C38.5925 45.8193 36.6547 47.8994 36.7941 50.7399C37.0234 51.3538 37.669 51.3538 38.0856 51.3068C37.7622 51.9668 37.1158 52.538 36.4237 52.6793C35.548 52.9166 34.8096 52.5384 34.117 52.1119C32.3203 49.6979 34.7172 47.3326 35.687 45.2041C33.1031 46.9061 30.8427 49.6497 28.7683 51.9228C27.8447 51.4968 27.1068 50.6921 26.3227 50.1248L26.3689 49.3684C27.337 47.7125 28.2143 46.0088 29.2286 44.3999L28.951 44.4477C26.5982 46.6687 24.1555 48.988 22.1705 51.5911C21.1562 51.7798 20.4183 50.929 19.6354 50.4543L19.496 50.1726C20.2789 48.2333 21.2957 46.387 22.0324 44.4938C19.4502 46.9543 17.0045 49.7927 14.0986 51.4481C12.9914 51.5911 12.4383 50.36 11.6067 49.7466L11.424 49.3684C12.6693 45.8197 13.8688 42.1767 16.036 39.0527L16.4514 39.101Z" fill="#DD0F2D"/>
<path d="M93.9448 44.2101C92.468 45.8191 91.0384 47.6175 91.7309 49.8872C91.9603 50.5506 92.6058 51.0219 93.2996 50.9749C95.5122 50.645 96.5282 48.0888 96.9872 46.2442C96.3866 46.3386 95.8805 46.1495 95.3744 45.9603C94.6806 45.6304 94.2215 44.8257 93.9448 44.2101ZM66.544 43.1203C65.1626 44.2101 64.1 45.6304 63.7783 47.2397C63.6388 48.0892 63.7783 48.8935 64.331 49.509C64.6997 49.9355 65.2529 50.0763 65.8531 50.0303C68.069 49.6021 69.358 47.0971 69.7288 45.0618L68.8052 45.0157C67.7905 45.1091 66.869 43.9267 66.544 43.1203ZM51.8318 41.5148C53.492 42.553 54.3669 44.3997 55.0591 45.9603C55.7054 44.3514 56.3514 42.649 56.8588 41.0401C55.1981 41.1827 53.3988 41.1827 51.8318 41.5148ZM55.4278 29.6385L51.0922 39.9055C53.167 39.9998 55.3833 39.7624 57.5505 39.6681C59.1646 36.1199 60.5934 32.4768 62.5313 29.0238C63.4994 28.2682 64.1915 29.7811 64.9307 30.2536L65.0681 30.6336C63.6384 33.5667 62.2096 36.4994 60.9634 39.5251C64.4683 39.9524 69.7284 38.2022 71.4349 42.1278C71.5722 42.4134 71.3878 42.7895 71.5722 43.0268C73.9708 41.7035 75.8633 39.1947 77.293 37.0193C78.3073 37.3019 77.4761 38.2496 77.8012 39.0521C77.8462 39.6203 78.3073 40.1402 78.7685 40.378C79.1822 40.5206 79.8294 40.2832 79.9667 40.8023C79.1372 42.9342 77.7542 44.8253 76.923 46.9055C76.5093 47.9475 75.7697 49.0335 76.2308 50.2202C76.6013 50.7393 77.2934 50.5502 77.7546 50.3589C81.7677 47.2832 82.921 42.5521 85.0433 38.4374C85.0882 38.3448 84.9488 38.2974 84.9488 38.2491L82.2284 38.39C82.0424 37.8701 82.5502 37.4445 82.9206 37.1145L85.688 36.8289C86.6078 35.0787 87.255 33.2333 88.3163 31.4831C89.287 31.8156 90.2538 32.9033 90.5302 33.8962C90.2987 34.8435 89.6087 35.6464 89.4222 36.4989C92.5147 36.4042 95.7432 36.0242 98.9713 36.1668C99.2935 36.6398 99.3405 37.2071 99.4325 37.7288C95.7432 37.8696 92.2366 37.9644 88.5923 38.107C86.7485 41.8917 84.9954 45.7704 83.567 49.7455C83.4729 50.2202 83.567 50.7871 84.1201 50.928C85.8266 50.7871 87.2075 49.3673 88.2685 47.9471C89.2861 44.9657 90.9926 41.0875 94.4975 40.2828C95.9272 40.0472 97.1708 40.5684 98.1397 41.6061C98.8793 42.5056 99.293 43.5011 99.2027 44.7301C101.231 44.1145 102.845 42.4595 104.506 40.9445C105.475 41.1353 105.983 42.2699 106.581 42.9338L106.397 43.7828C105.566 45.1552 104.875 46.6677 104.23 48.1357C106.581 46.0999 109.119 43.6415 111.426 41.5135C112.303 41.8439 112.995 42.8855 112.995 43.7828C111.794 45.7704 110.825 47.8506 110.41 50.1715C110.41 50.7389 110.226 51.3527 110.779 51.7327L111.335 51.5901C114.47 47.6632 116.592 43.2159 120.373 39.6672C121.02 40.5202 121.848 41.6548 121.668 42.7895C119.036 45.8673 124.018 49.0335 120.742 51.9218C119.589 53.1047 117.836 53.1047 116.361 52.6304C115.807 52.3947 115.162 52.1574 114.838 51.5905C115.117 50.8319 115.439 49.9833 116.084 49.4621C116.223 50.3594 116.27 51.4475 117.237 51.9222C117.836 52.1578 118.483 51.8279 118.761 51.2588C119.497 49.2247 117.376 48.0418 117.79 45.9138C117.882 45.0148 118.253 44.1154 118.435 43.3111C115.946 46.1012 114.238 49.2251 112.163 52.2043C111.471 52.9164 110.549 53.1499 109.625 53.0107C108.843 52.9164 108.15 52.4417 107.828 51.7335C107.136 49.7464 107.597 47.3323 108.75 45.5821L108.381 45.6769C106.212 47.8071 103.998 50.0298 102.015 52.2043C101.093 52.0635 100.356 51.1184 99.8008 50.3598C100.585 48.0892 101.739 46.0086 102.937 43.9267C101.694 44.5883 100.356 45.2987 98.9713 45.8195C98.1872 48.8008 96.0179 52.2043 92.8368 52.9629C91.5932 53.2951 90.0224 52.9629 89.1005 51.78C88.5478 51.1662 88.4087 50.3598 88.0866 49.6499C86.3331 51.4001 84.1659 53.0112 81.7202 52.0157C80.6614 51.354 80.5673 50.0763 80.6614 48.9417C79.2767 50.881 77.3392 52.2043 74.9872 52.0635C74.1107 51.967 73.1413 51.6853 72.773 50.7402C72.1728 47.2845 74.4794 44.494 76.2783 41.7983C76.141 41.4183 76.0486 41.0401 75.8642 40.7101C74.4345 41.9861 73.0502 43.5489 71.3887 44.3514C70.9296 47.7588 68.7607 51.78 65.1634 52.5864C63.9164 52.6312 62.8102 52.3956 61.8866 51.6375C60.4115 50.3598 60.1343 48.2335 60.6413 46.3386C61.2415 44.2106 62.7635 42.223 64.6107 40.851L64.4696 40.7101L60.3658 40.8032C58.6123 44.637 56.86 48.4674 55.5215 52.4421C55.385 52.7743 55.0141 52.7743 54.7848 52.6799C52.3862 52.0161 54.2762 49.5577 53.5395 47.9488C53.1691 45.8203 52.1548 43.6902 50.1262 42.5538L49.9409 42.6503C48.5575 45.9151 47.2206 49.2725 45.7439 52.4426H45.3751C44.4973 51.5918 42.7006 50.6923 43.3444 49.1782L46.5284 41.7048C46.1135 41.4192 45.0072 41.7526 45.1899 40.8036C45.7439 40.0489 47.0354 40.7106 47.3584 39.8115L52.5706 27.6061C52.8482 27.3214 53.2161 27.3214 53.4941 27.6061C54.1372 28.2682 55.1053 28.6938 55.4278 29.6385Z" fill="#DD0F2D"/>
<path fill-rule="evenodd" clip-rule="evenodd" d="M122.715 51.7337C122.715 51.1479 123.179 50.6714 123.754 50.6714C124.325 50.6714 124.792 51.1474 124.792 51.7337C124.792 52.323 124.325 52.7999 123.754 52.7999C123.179 52.7999 122.715 52.323 122.715 51.7337ZM122.49 51.7337C122.49 52.4492 123.056 53.0299 123.754 53.0299C124.448 53.0299 125.016 52.4492 125.016 51.7337C125.016 51.0221 124.448 50.4414 123.754 50.4414C123.056 50.4414 122.49 51.0221 122.49 51.7337ZM123.533 51.2164H123.725C123.888 51.2129 124.068 51.2241 124.068 51.4227C124.068 51.6209 123.887 51.6299 123.725 51.6299H123.533V51.2164ZM123.267 52.466H123.533V51.8599H123.725L124.083 52.466H124.363L123.986 51.8393C124.184 51.8151 124.333 51.6911 124.333 51.4335C124.333 51.1479 124.17 50.9868 123.823 50.9868H123.268V52.466H123.267Z" fill="#DD0F2D"/>
</svg>
