<svg width="38" height="39" viewBox="0 0 38 39" fill="none" xmlns="http://www.w3.org/2000/svg">
<path d="M19 0.6875C8.85273 0.6875 0.625 9.11113 0.625 19.5C0.625 29.8889 8.85273 38.3125 19 38.3125C29.1473 38.3125 37.375 29.8889 37.375 19.5C37.375 9.11113 29.1473 0.6875 19 0.6875ZM27.8307 14.8683C27.843 15.0656 27.843 15.2714 27.843 15.4729C27.843 21.6374 23.2574 28.7383 14.8779 28.7383C12.2939 28.7383 9.89863 27.9698 7.88066 26.6471C8.2498 26.6891 8.60254 26.7059 8.97988 26.7059C11.1127 26.7059 13.0732 25.9668 14.6359 24.7154C12.6344 24.6734 10.9527 23.3297 10.3785 21.482C11.0799 21.587 11.7115 21.587 12.4334 21.398C11.4028 21.1837 10.4764 20.6106 9.81175 19.7762C9.14705 18.9419 8.785 17.8976 8.78711 16.8209V16.7621C9.39004 17.1106 10.0996 17.3248 10.842 17.3542C10.2179 16.9284 9.7061 16.3515 9.35194 15.6746C8.99778 14.9978 8.81223 14.242 8.81172 13.4741C8.81172 12.6049 9.0332 11.8112 9.43106 11.1226C10.575 12.5643 12.0024 13.7435 13.6207 14.5834C15.2389 15.4234 17.0116 15.9053 18.8236 15.9979C18.1797 12.8274 20.493 10.2617 23.2738 10.2617C24.5863 10.2617 25.7676 10.8244 26.6002 11.7314C27.6297 11.5341 28.6141 11.1394 29.4918 10.6103C29.1514 11.6895 28.4377 12.6007 27.4902 13.176C28.409 13.0752 29.2949 12.8148 30.1152 12.4495C29.4959 13.3817 28.7207 14.209 27.8307 14.8683Z" fill="#EA3358"/>
</svg>
