<svg width="126" height="80" viewBox="0 0 126 80" fill="none" xmlns="http://www.w3.org/2000/svg">
<path d="M72.9201 40.9651C72.9201 38.0024 71.6632 35.3848 67.4124 35.3848C65.2315 35.3848 63.499 36.012 62.5598 36.5609L63.2482 38.9378C64.113 38.3904 65.4929 37.9395 66.7953 37.9395C68.9474 37.9365 69.2999 39.1648 69.2999 39.9545V40.1447C64.6023 40.137 61.6327 41.7747 61.6327 45.11C61.6327 47.148 63.1403 49.0587 65.7756 49.0587C67.3835 49.0587 68.7422 48.4039 69.5537 47.3704H69.6328C69.6328 47.3704 70.1678 49.6291 73.1267 48.7658C72.9763 47.8197 72.9201 46.8229 72.9201 45.6115V40.9651V40.9651ZM69.4155 44.0933C69.4155 44.3325 69.3958 44.581 69.3258 44.7941C69.0553 45.7065 68.1222 46.4702 66.961 46.4702C65.9808 46.4702 65.2118 45.9105 65.2118 44.7374C65.2118 42.9432 67.1753 42.4495 69.4155 42.4617" fill="#0071CE"/>
<path d="M1 31.3535C1 31.3535 4.06839 44.02 4.55626 46.0717C5.13072 48.4701 6.15961 49.3564 9.12926 48.766L11.0472 40.9116C11.532 38.9657 11.8618 37.5702 12.1749 35.5874H12.228C12.4454 37.5901 12.7585 38.9657 13.1551 40.9178C13.1551 40.9178 13.9378 44.4861 14.3436 46.3554C14.7387 48.2247 15.8512 49.404 18.7646 48.766L23.33 31.3535H19.6445L18.0777 38.8859C17.6628 41.068 17.2858 42.7871 16.9925 44.7867H16.9393C16.6749 42.8085 16.339 41.16 15.9074 39.0224L14.2843 31.3535H10.4393L8.70674 38.8261C8.2128 41.1079 7.75081 42.9373 7.46052 44.8741H7.41038C7.111 43.0569 6.70522 40.7429 6.27509 38.547C6.27509 38.547 5.24621 33.1967 4.88301 31.3535" fill="#0071CE"/>
<path d="M33.6007 40.9651C33.6007 38.0024 32.3407 35.3848 28.0899 35.3848C25.9152 35.3848 24.1796 36.012 23.2404 36.5609L23.9288 38.9378C24.7906 38.3904 26.169 37.9395 27.476 37.9395C29.628 37.9365 29.9806 39.1648 29.9806 39.9545V40.1447C25.283 40.137 22.3103 41.7747 22.3103 45.11C22.3103 47.148 23.824 49.0587 26.4471 49.0587C28.0702 49.0587 29.4168 48.4039 30.2283 47.3704H30.3103C30.3103 47.3704 30.8483 49.6291 33.8043 48.7658C33.6524 47.8197 33.6007 46.8229 33.6007 45.6115V40.9651V40.9651ZM30.0931 44.0933C30.0931 44.3325 30.0733 44.581 30.0065 44.7941C29.7328 45.7065 28.7997 46.4702 27.6356 46.4702C26.6614 46.4702 25.8894 45.9105 25.8894 44.7374C25.8894 42.9432 27.8529 42.4495 30.0931 42.4617" fill="#0071CE"/>
<path d="M35.5131 31.3535V48.7599H39.0207V45.0689V31.3535H35.5131Z" fill="#0071CE"/>
<path d="M83.6855 31.3535V44.1963C83.6855 45.969 84.0152 47.205 84.7249 47.9625C85.3481 48.6265 86.3678 49.0589 87.5821 49.0589C88.6247 49.0589 89.6444 48.8565 90.1262 48.6802L90.0837 45.9153C89.7235 45.9997 89.3116 46.0717 88.7462 46.0717C87.5487 46.0717 87.1536 45.3065 87.1536 43.7148V38.7985H90.2083V35.4724H87.1536V31.3535" fill="#0071CE"/>
<path d="M74.6194 35.6869V48.7658H78.2456V42.0676C78.2456 41.7073 78.2683 41.396 78.3246 41.1077C78.5951 39.6954 79.6574 38.8013 81.1878 38.8013C81.6149 38.8013 81.9051 38.8489 82.2274 38.8995V35.4706C81.9568 35.4216 81.773 35.3955 81.4401 35.3955C80.083 35.3955 78.5449 36.265 77.896 38.1588H77.8064V35.6869" fill="#0071CE"/>
<path d="M41.0576 35.6869V48.7658H44.591V41.0893C44.591 40.7289 44.6306 40.3609 44.7567 40.0281C45.044 39.2506 45.7568 38.3505 46.9011 38.3505C48.3236 38.3505 48.9954 39.5619 48.9954 41.3101V48.7658H52.5198V40.9973C52.5198 40.6584 52.5669 40.2428 52.6656 39.9422C52.9483 39.0605 53.7203 38.3505 54.7873 38.3505C56.2249 38.3505 56.921 39.5359 56.921 41.5969V48.7658H60.4423V41.054C60.4423 37.0026 58.3997 35.3955 56.0805 35.3955C55.0608 35.3955 54.2493 35.6485 53.5197 36.1024C52.9027 36.4843 52.3617 37.0225 51.8768 37.7264H51.8237C51.2659 36.3187 49.9559 35.3955 48.2446 35.3955C46.0501 35.3955 45.0531 36.5134 44.4665 37.458H44.4132V35.6869" fill="#0071CE"/>
<path d="M109.185 35.0994C109.878 35.0994 110.462 34.7345 110.538 34.2652L111.225 26.4139C111.225 25.6364 110.318 25 109.185 25C108.047 25 107.146 25.6364 107.146 26.4139L107.839 34.2652C107.912 34.7345 108.492 35.0994 109.185 35.0994Z" fill="#FCB61A"/>
<path d="M104.971 37.5557C105.314 36.9424 105.294 36.2615 104.924 35.9579L98.51 31.4326C97.8429 31.04 96.8443 31.5077 96.2729 32.4984C95.703 33.4874 95.8185 34.5977 96.472 34.9826L103.572 38.3041C104.027 38.4758 104.621 38.1569 104.971 37.5496" fill="#FCB61A"/>
<path d="M113.399 37.5502C113.762 38.1575 114.357 38.4764 114.799 38.3139L121.899 34.9832C122.559 34.5906 122.658 33.4911 122.1 32.5021C121.53 31.5114 120.525 31.0468 119.86 31.4317L113.445 35.9524C113.089 36.2606 113.063 36.9445 113.407 37.5564" fill="#FCB61A"/>
<path d="M109.185 44.9062C109.878 44.9062 110.462 45.2712 110.538 45.7405L111.225 53.5918C111.225 54.3693 110.318 54.9995 109.185 54.9995C108.047 54.9995 107.146 54.3693 107.146 53.5918L107.839 45.7405C107.912 45.2712 108.492 44.9062 109.185 44.9062Z" fill="#FCB61A"/>
<path d="M113.399 42.4567C113.762 41.8479 114.357 41.5228 114.799 41.6991L121.899 45.0237C122.559 45.4086 122.658 46.5173 122.1 47.5079C121.53 48.4909 120.525 48.9586 119.86 48.5737L113.445 44.0469C113.089 43.7417 113.063 43.0609 113.407 42.4567" fill="#FCB61A"/>
<path d="M104.971 42.4501C105.314 43.062 105.294 43.7413 104.924 44.048L98.51 48.5671C97.8429 48.9597 96.8443 48.4905 96.2729 47.5075C95.703 46.5184 95.8185 45.4082 96.472 45.0233L103.572 41.6987C104.027 41.5239 104.621 41.846 104.971 42.4501Z" fill="#FCB61A"/>
<path d="M123.977 47.8849H124.065C124.185 47.8849 124.234 47.9232 124.248 48.0198C124.274 48.1272 124.287 48.1992 124.313 48.2299H124.541C124.521 48.2069 124.495 48.1486 124.482 48.0137C124.456 47.8971 124.397 47.8312 124.313 47.8082V47.7867C124.429 47.7607 124.495 47.6825 124.495 47.5859C124.495 47.4984 124.456 47.4356 124.416 47.3957C124.34 47.3589 124.267 47.3298 124.106 47.3298C123.964 47.3298 123.859 47.342 123.775 47.362V48.2299H123.977V47.8849V47.8849ZM123.983 47.4892L124.087 47.4754C124.208 47.4754 124.274 47.5322 124.274 47.6119C124.274 47.7009 124.185 47.7423 124.073 47.7423H123.983V47.4892V47.4892ZM124.112 46.9004C123.614 46.9004 123.219 47.293 123.219 47.7745C123.219 48.2682 123.614 48.6608 124.112 48.6608C124.617 48.6608 125 48.2682 125 47.7745C125 47.293 124.617 46.9004 124.112 46.9004ZM124.112 47.0767C124.495 47.0767 124.78 47.3896 124.78 47.7745C124.78 48.1624 124.495 48.4845 124.112 48.4783C123.729 48.4783 123.439 48.1624 123.439 47.7745C123.439 47.3896 123.729 47.0767 124.106 47.0767" fill="#FCB61A"/>
</svg>
